<svg xmlns="http://www.w3.org/2000/svg" viewBox="0 0 48 48"><path fill="#65899c" d="M37,31H11V8c0-1.657,1.343-3,3-3h20c1.657,0,3,1.343,3,3V31z"/><path fill="#769fb5" d="M39,34H9V11c0-1.657,1.343-3,3-3h24c1.657,0,3,1.343,3,3V34z"/><path fill="#8cbcd6" d="M41,39H7V14c0-1.657,1.343-3,3-3h28c1.657,0,3,1.343,3,3V39z"/><path fill="#b7e1fa" d="M32 15A2 2 0 1 0 32 19A2 2 0 1 0 32 15Z"/><path fill="#9fd0eb" d="M21 16L12 29 30 29z"/><path fill="#b7e1fa" d="M30 22L24 30 36 30z"/><path fill="#ff9800" d="M42,43H6c-1.105,0-2-0.895-2-2V28h40v13C44,42.105,43.105,43,42,43z"/><path fill="#ab5600" d="M27.5,35h-7c-0.828,0-1.5-0.672-1.5-1.5s0.672-1.5,1.5-1.5h7c0.828,0,1.5,0.672,1.5,1.5 S28.328,35,27.5,35"/></svg>