<svg xmlns="http://www.w3.org/2000/svg" viewBox="0 0 128 128"><path fill="#fff" d="M40,19v45h-8v37l8,8c0,5.5,4.5,10,10,10h35.6l6.4,5h16l-1.7-5h7.6c5.5,0,10-4.5,10-10l0.1-80C124,18,115,9,104,9H50C44.5,9,40,13.5,40,19z"/><path fill="#fff" d="M37 94A15 15 0 1 0 37 124A15 15 0 1 0 37 94Z" transform="rotate(-45.001 36.999 109.001)"/><path fill="#71c2ff" d="M37 127c-4.8 0-9.3-1.9-12.7-5.3-3.4-3.4-5.3-7.9-5.3-12.7s1.9-9.3 5.3-12.7C27.7 92.9 32.2 91 37 91c4.8 0 9.3 1.9 12.7 5.3l0 0 0 0c3.4 3.4 5.3 7.9 5.3 12.7 0 4.8-1.9 9.3-5.3 12.7C46.3 125.1 41.8 127 37 127zM37 97c-3.2 0-6.2 1.2-8.5 3.5S25 105.8 25 109s1.2 6.2 3.5 8.5 5.3 3.5 8.5 3.5 6.2-1.2 8.5-3.5 3.5-5.3 3.5-8.5-1.2-6.2-3.5-8.5l0 0C43.2 98.2 40.2 97 37 97zM58 67h-3c-1.7 0-3-1.3-3-3s1.3-3 3-3h3c1.7 0 3 1.3 3 3S59.7 67 58 67zM108 127H93.4c-4.3 0-8.3-2.1-10.7-5.6-2.4-3.5-3-8-1.5-12l9.9-26.5c.4-1.2 1.6-1.9 2.8-1.9 0 0 0 0 0 0 1.3 0 2.4.8 2.8 2l14 40c.3.9.2 1.9-.4 2.7C109.9 126.5 109 127 108 127zM93.9 92.8l-7 18.7c-.8 2.2-.5 4.5.8 6.4s3.4 3 5.8 3h10.3L93.9 92.8z"/><path fill="#71c2ff" d="M77,103c-0.5,0-1-0.1-1.4-0.4l-22-12c-1-0.5-1.6-1.5-1.6-2.6V67H35v14c0,1.7-1.3,3-3,3s-3-1.3-3-3V64c0-1.7,1.3-3,3-3h23c1.7,0,3,1.3,3,3v22.2l20.4,11.1c1.5,0.8,2,2.6,1.2,4.1C79.1,102.4,78.1,103,77,103z"/><path fill="#71c2ff" d="M22,89.5c-1,0-1.9-0.5-2.5-1.3C18.6,86.8,19,85,20.3,84c4.9-3.3,10.7-5,16.7-5c2.8,0,5.5,0.4,8.1,1.1c1.6,0.4,2.5,2.1,2.1,3.7c-0.4,1.6-2.1,2.5-3.7,2.1C41.4,85.3,39.2,85,37,85c-4.8,0-9.4,1.4-13.3,4C23.2,89.4,22.6,89.5,22,89.5z"/><path fill="#fff" d="M74,117c0-2.9-1.8-5.4-4.3-6.4c-0.8-0.4-1.8-0.6-2.7-0.6c-3.9,0-7,3.1-7,7c0,3.9,3.1,7,7,7S74,120.9,74,117z"/><path fill="#71c2ff" d="M67 127c-5.5 0-10-4.5-10-10s4.5-10 10-10c1.3 0 2.7.3 3.9.8 3.7 1.6 6.1 5.2 6.1 9.2C77 122.5 72.5 127 67 127zM67 113c-2.2 0-4 1.8-4 4s1.8 4 4 4 4-1.8 4-4c0-1.6-1-3.1-2.4-3.7C68.1 113.1 67.5 113 67 113zM37 127H17c-1.7 0-3-1.3-3-3s1.3-3 3-3h20c1.7 0 3 1.3 3 3S38.7 127 37 127zM4 127c-.2 0-.4 0-.6-.1-.2 0-.4-.1-.6-.2-.2-.1-.3-.2-.5-.3-.2-.1-.3-.2-.5-.4-.1-.1-.3-.3-.4-.5-.1-.2-.2-.3-.3-.5-.1-.2-.1-.4-.2-.6 0-.2-.1-.4-.1-.6 0-.2 0-.4.1-.6 0-.2.1-.4.2-.6.1-.2.2-.3.3-.5.1-.2.2-.3.4-.5s.3-.3.5-.4c.2-.1.3-.2.5-.3.2-.1.4-.1.6-.2.4-.1.8-.1 1.2 0 .2 0 .4.1.6.2.2.1.4.2.5.3.2.1.3.2.5.4.6.6.9 1.3.9 2.1 0 .2 0 .4-.1.6 0 .2-.1.4-.2.6-.1.2-.2.4-.3.5-.1.2-.2.3-.4.5C5.6 126.7 4.8 127 4 127z"/><g><path fill="#444b54" d="M120.3 12.8C115.9 8.4 110.2 6 104 6c0 0 0 0 0 0 0 0 0 0 0 0 0 0 0 0 0 0H50c-7.2 0-13 5.8-13 13v25c0 1.7 1.3 3 3 3s3-1.3 3-3V19c0-3.9 3.1-7 7-7h51v7c0 7.2 5.8 13 13 13h9.6c.1 0 .2 0 .4 0 0 0 0 0 0 0 1.2 0 2.3-.8 2.8-1.8.2-.4.3-.8.3-1.2 0-.1 0-.3 0-.4C126.9 22.6 124.5 17 120.3 12.8zM107 19v-6.7c3.4.6 6.5 2.2 9 4.7 2.5 2.5 4.1 5.6 4.7 9H114C110.1 26 107 22.9 107 19zM124 39C124 39 124 39 124 39c-1.7 0-3 1.3-3 3l-.1 72c0 1.7 1.3 3 3 3 0 0 0 0 0 0 1.7 0 3-1.3 3-3l.1-72C127 40.3 125.6 39 124 39z"/></g></svg>