<svg xmlns="http://www.w3.org/2000/svg" viewBox="0 0 40 40"><path fill="#dff0fe" d="M28.207 38.5L31.901 34.806 24.707 27.612 27.612 24.707 34.806 31.901 38.5 28.207 38.5 38.5z"/><path fill="#4788c7" d="M27.612,25.414l6.487,6.487l0.707,0.707l0.707-0.707L38,29.414V38h-8.586l2.487-2.487l0.707-0.707 l-0.707-0.707l-6.487-6.487L27.612,25.414 M27.612,24L24,27.612l7.194,7.194L27,39h12V27l-4.194,4.194L27.612,24L27.612,24z"/><path fill="#dff0fe" d="M5.194 8.099L1.5 11.793 1.5 1.5 11.793 1.5 8.099 5.194 15.293 12.388 12.388 15.293z"/><path fill="#4788c7" d="M10.586,2L8.099,4.487L7.392,5.194l0.707,0.707l6.487,6.487l-2.198,2.198L5.901,8.099L5.194,7.392 L4.487,8.099L2,10.586V2H10.586 M13,1H1v12l4.194-4.194L12.388,16L16,12.388L8.806,5.194L13,1L13,1z"/><g><path fill="#dff0fe" d="M1.5 38.5L1.5 28.207 5.194 31.901 12.388 24.707 15.293 27.612 8.099 34.806 11.793 38.5z"/><path fill="#4788c7" d="M12.388,25.414l2.198,2.198l-6.487,6.487l-0.707,0.707l0.707,0.707L10.586,38H2v-8.586l2.487,2.487 l0.707,0.707l0.707-0.707L12.388,25.414 M12.388,24l-7.194,7.194L1,27v12h12l-4.194-4.194L16,27.612L12.388,24L12.388,24z"/></g><g><path fill="#dff0fe" d="M24.707 12.388L31.901 5.194 28.207 1.5 38.5 1.5 38.5 11.793 34.806 8.099 27.612 15.293z"/><path fill="#4788c7" d="M38,2v8.586l-2.487-2.487l-0.707-0.707l-0.707,0.707l-6.487,6.487l-2.198-2.198l6.487-6.487 l0.707-0.707l-0.707-0.707L29.414,2H38 M39,1H27l4.194,4.194L24,12.388L27.612,16l7.194-7.194L39,13V1L39,1z"/></g></svg>