<svg xmlns="http://www.w3.org/2000/svg" viewBox="0 0 48 48"><path fill="#ffb74d" d="M31,44v-4.6l2.6,0.5c2.9,0.6,5.6-1.5,5.8-4.4L40,29l2.9-1.2c1-0.4,1.4-1.6,0.8-2.6L40,19 c-0.6-7.6-4.9-15-16-15C12.6,4,7,12.4,7,21c0,3.7,1.3,6.9,3.3,9.6c1.8,2.5,2.7,5.5,2.7,8.5V44H31z"/><path fill="#ffb74d" d="M42.9,27.8L40,29l-0.6,6.5c-0.2,2.9-2.9,5-5.8,4.4L31,39.4V44H13v-4.9c0-3-0.9-6-2.7-8.5 c-0.86-1.17-1.59-2.42-2.15-3.78C7.42,25.04,7,23.1,7,21c0-7.17,3.89-14.2,11.8-16.34C20.37,4.23,22.11,4,24,4 c11.1,0,15.4,7.4,16,15l3.7,6.2C44.3,26.2,43.9,27.4,42.9,27.8z"/><path fill="#ffcc80" d="M22,11.98c0,2.95-1.27,5.76-3.49,7.71l-0.29,0.24c-0.37,0.28-1.13,0.86-1.23,1.15L17,24 c0,0.1,0,0.29-0.04,0.52c-0.17,1.35-1,2.5-2.19,3.1C14.13,28.46,13.1,29,12,29s-2.12-0.54-2.77-1.38c-0.41-0.21-0.77-0.48-1.08-0.8 C7.42,25.04,7,23.1,7,21c0-7.17,3.89-14.2,11.8-16.34c0.08,0.07,0.16,0.15,0.23,0.22C20.95,6.77,22,9.29,22,11.98z"/><path fill="#90caf9" d="M12,4c-4.404-0.039-8,3.575-8,7.979c0,2.506,1.104,4.711,2.81,6.214C7.713,18.895,9,19.797,9,21h3h3 c0-1.203,1.287-2.105,2.19-2.807C18.896,16.69,20,14.485,20,11.979C20,7.575,16.404,3.961,12,4z"/><path fill="#fff" d="M13 22L11 22 11 13.4 8.561 11 9.966 9.6 13 12.6z"/><path fill="#fff" d="M10.564 12.99L13.969 9.596 15.388 11.01 11.983 14.404z"/><path fill="#283593" d="M15,21v3c0,0.07,0,0.13-0.02,0.2c-0.08,0.91-0.74,1.61-1.58,1.8c-0.2,0.6-0.8,1-1.4,1s-1.2-0.4-1.4-1 c-0.61-0.13-1.12-0.54-1.39-1.1C9.07,24.63,9,24.33,9,24v-3H15z"/><path fill="#5c6bc0" d="M15,22.1V24c0,0.07,0,0.13-0.02,0.2l-5.77,0.7C9.07,24.63,9,24.33,9,24v-1.1L15,22.1z"/></svg>