<svg xmlns="http://www.w3.org/2000/svg" viewBox="0 0 40 40"><path fill="none" stroke="#4788c7" stroke-miterlimit="10" d="M3.125 19L20 3 37 19"/><path fill="#98ccfd" d="M2.5 18.5H37.5V36.5H2.5z"/><path fill="#4788c7" d="M37,19v17H3V19H37 M38,18H2v19h36V18L38,18z"/><path fill="#fff" d="M15 23.173C15.492 23.068 16.157 23 16.821 23c1.037 0 1.861.147 2.433.692.532.465.771 1.209.771 1.967 0 .97-.292 1.661-.757 2.154-.559.599-1.449.864-2.18.864-.119 0-.361 0-.48-.013V32H15V23.173zM16.607 27.254c.093.014.32.014.427.014.877 0 1.263-.625 1.263-1.463 0-.785-.319-1.396-1.129-1.396-.16 0-.454.027-.56.066v2.779H16.607zM13.071 27.343c0 3.314-1.253 4.657-3.035 4.657-2.13 0-2.965-2.113-2.965-4.525 0-2.401 1.016-4.475 3.104-4.475C12.431 23 13.071 25.335 13.071 27.343zM8.691 27.5c0 2.129.504 3.214 1.424 3.214.972 0 1.336-1.391 1.336-3.297 0-1.642-.312-3.131-1.354-3.131C9.195 24.286 8.691 25.482 8.691 27.5zM25.093 28.047h-2.486v2.431h2.775V32H21v-9h4.223v1.523h-2.615v2.069h2.486L25.093 28.047 25.093 28.047zM27 32v-9h1.8l1.561 3.525c.315.694.794 1.855 1.08 2.63h.029c-.06-.949-.195-2.51-.195-4.166V23H33v9h-1.8l-1.545-3.418c-.346-.761-.796-1.91-1.035-2.711h-.03c.06.908.135 2.298.135 4.114V32H27z"/><path fill="#98ccfd" d="M20 2.5A1.5 1.5 0 1 0 20 5.5A1.5 1.5 0 1 0 20 2.5Z"/><path fill="#4788c7" d="M20,3c0.551,0,1,0.449,1,1s-0.449,1-1,1s-1-0.449-1-1S19.449,3,20,3 M20,2c-1.105,0-2,0.895-2,2 s0.895,2,2,2s2-0.895,2-2S21.105,2,20,2L20,2z"/></svg>