<svg xmlns="http://www.w3.org/2000/svg" viewBox="0 0 48 48"><path fill="#8bc34a" d="M16,42c-1-6-8-11-8-11c3,4,0,11,0,11H16z"/><path fill="#388e3c" d="M19,30c0,0-7,4-6,12h5C18,42,16,35,19,30z"/><path fill="#4caf50" d="M40,32c-7,4-6,10-6,10h6C37,38,40,32,40,32z"/><path fill="#8bc34a" d="M34,28c0,0-5,8-3,14h7C33,39,34,28,34,28z"/><path fill="#388e3c" d="M30,30c0,0-1,9,3,12h-8C25.479,39.347,30,30,30,30z"/><path fill="#4caf50" d="M23,32c-7,4-6,10-6,10h6C20,38,23,32,23,32z"/><path fill="#8bc34a" d="M26,34c0,0-1,4,1,8h-6C22,37,26,34,26,34z"/><path fill="#e39d36" d="M32.491,20.95c1.166,0.686,2.665,0.295,3.349-0.871c0.679-1.156,0.302-2.645-0.848-3.336 L22.387,9.095c0,0-3.099,4.029-3.074,4.029L32.491,20.95"/><path fill="#eda740" d="M36.022,20.495c1.166,0.686,2.665,0.295,3.349-0.872c0.68-1.156,0.302-2.647-0.848-3.338 L25.918,8.637c0,0-3.099,4.03-3.074,4.03L36.022,20.495"/><path fill="#ffb74d" d="M38.942,19.614c1.297,0.76,2.963,0.326,3.723-0.968c0.756-1.287,0.336-2.941-0.942-3.711 L27.952,6.588c-1.15-0.696-2.58-0.725-3.758-0.083L9.087,14.752L5,12.044c0,0,0.027,10.975,0.042,11l5.641,3.474 c1.14,0.647,2.534,0.658,3.683,0.028l12.351-7.147c1.7-0.93,2.164-3.211,0.842-4.746c-0.957-1.109-2.604-1.33-3.892-0.629 l-2.949,1.609l5.867-3.359c0.029,0-0.028,0,0,0L38.942,19.614"/><path fill="#eda740" d="M26.534,12.247c-1.268-0.704-2.84-0.564-3.963,0.355l-8.035,6.59l10.683-6.041l1.368-0.877 L26.534,12.247"/><path fill="#ffcc80" d="M24.491,14.884c0.903-0.465,2.012-0.113,2.478,0.789c0.466,0.903,0.112,2.012-0.789,2.477 c-0.902,0.465-1.331-0.187-1.798-1.09C23.917,16.159,23.589,15.349,24.491,14.884"/></svg>