<svg xmlns="http://www.w3.org/2000/svg" width="48" height="48" viewBox="0 0 48 48"><path fill="#546E7A" d="M25.553 33.893c0 0-3.479 3.504-5.005 5.039-1.521 1.537-8.536 4.178-13.586 2.159-2.56-5.642.624-12.146 2.146-13.676 1.524-1.531 5.005-5.038 5.005-5.038L25.553 33.893zM38.424 15.179L32.703 9.42 35.564 6.541 41.284 12.299z"/><g><path fill="#FFC107" d="M29.844,15.179L18.402,26.695c-0.56,0.563-5.609,5.879-4.184,7.305s6.484-3.865,7.045-4.426l11.439-11.517l-0.715-0.72L29.844,15.179z"/><path fill="#FFC107" d="M31.131,18.489l-0.286-2.012l0.999-0.146c0.047-0.007,4.729-0.728,8.011-4.031l0.715-0.72L42,13.02l-0.716,0.72c-3.771,3.796-8.935,4.575-9.153,4.606L31.131,18.489z"/><path fill="#FFC107" d="M31.414,17.05l-1.999-0.289l0.143-1.007c0.031-0.218,0.806-5.418,4.576-9.213l0.715-0.719l1.43,1.439L35.563,7.98c-3.281,3.304-3.997,8.017-4.004,8.063L31.414,17.05z"/></g></svg>