<svg xmlns="http://www.w3.org/2000/svg" viewBox="0 0 48 48"><path fill="#8bc34a" d="M23,44.03c-0.6,0-1-0.4-1-1c0-0.2-0.1-5.4-5.4-8.1c-0.5-0.2-0.7-0.8-0.4-1.3 c0.2-0.5,0.8-0.7,1.3-0.4c6.5,3.2,6.6,9.6,6.6,9.9C24,43.63,23.6,44.03,23,44.03z"/><path fill="#8bc34a" d="M19.6,27.83c-4.1-2.2-11,0.6-12.6,1.2c2.4,1.5,2.5,9.2,6.9,10.7c3.1,1.1,5.7-0.3,5.9-4.6 C23,33.33,22.5,29.33,19.6,27.83z M23,44.03c-0.6,0-1-0.4-1-1c0-6.7,4.6-7.9,4.8-8c0.5-0.1,1.1,0.2,1.2,0.7s-0.2,1.1-0.7,1.2 c-0.1,0-3.3,1-3.3,6C24,43.63,23.6,44.03,23,44.03z"/><path fill="#8bc34a" d="M27.8,29.23c3.8-1.1,9,2,10.2,2.8c-2.3,0.8-3.7,7.5-7.7,8c-2.8,0.3-4.7-1.2-4.1-4.8 C23.9,33.13,25.1,30.03,27.8,29.23z"/><path fill="#689f38" d="M13.9,39.73c-4.4-1.5-4.5-9.2-6.9-10.7l0,0c2.1,0.2,5.9,1.6,12.8,6l0,0 C19.6,39.43,17,40.73,13.9,39.73z M30.3,40.03c3.9-0.5,5.4-7.1,7.7-8l0,0c-1.8-0.2-5.2,0.7-11.8,3.1l0,0 C25.6,38.83,27.5,40.33,30.3,40.03z"/><polygon fill="#f9c132" points="37,22.7 36.77,25.53 25.73,24.64 23.6,24.47 22.11,24.35 22.34,21.52 23.72,21.63 25.89,21.81"/><path fill="#37484f" d="M33.505,19c-2.271,0-4.405-0.884-6.011-2.49c-3.314-3.314-3.314-8.707,0-12.021 C29.1,2.884,31.233,2,33.505,2c2.271,0,4.404,0.884,6.01,2.49l0,0l0,0c3.314,3.314,3.314,8.707,0,12.021 C37.909,18.116,35.775,19,33.505,19z M33.505,4c-1.736,0-3.369,0.676-4.597,1.904c-2.534,2.534-2.534,6.658,0,9.192 C30.136,16.324,31.769,17,33.505,17c1.735,0,3.368-0.676,4.596-1.904c2.534-2.534,2.534-6.658,0-9.192l0,0 C36.873,4.676,35.24,4,33.505,4z"/><path fill="#f9c132" d="M45.12,15.97l-6.34-6.33l-1.4-1.4l-4.32,4.32l-0.02-0.02l-1.89-1.89c-2.96,2.86-3.86,5.77-3.86,5.77 l0.94,0.94l1.42,1.42l6.33,6.33c0.55,0.56,1.4,0.51,1.91,0l7.23-7.23C45.67,17.33,45.62,16.47,45.12,15.97z M21.51,20.19 l-0.35,5.48c1.51,0.1,2.81-1.01,2.86-2.56C24.12,21.6,23.02,20.29,21.51,20.19z"/><path fill="#37484f" d="M25.89,21.81l-2.17-0.18c0.22,0.44,0.34,0.95,0.3,1.48c-0.01,0.51-0.17,0.98-0.42,1.36l2.13,0.17 c0.17-0.45,0.27-0.93,0.29-1.44C26.05,22.72,26,22.26,25.89,21.81z"/><polygon fill="#37484f" points="38.78,9.64 29.65,18.78 28.23,17.36 33.04,12.54 33.06,12.56 37.38,8.24"/></svg>