<svg xmlns="http://www.w3.org/2000/svg" viewBox="0 0 48 48"><rect width="2" height="11" x="32" y="23" fill="#8bc34a"/><path fill="#8bc34a" d="M33,26c-0.552,0-1-0.447-1-1c0-5.068,1.747-8.177,3.15-10.675c0.339-0.604,0.667-1.186,0.953-1.768	c0.244-0.494,0.844-0.695,1.339-0.455c0.496,0.244,0.699,0.844,0.455,1.34c-0.302,0.612-0.646,1.226-1.003,1.862	C35.537,17.719,34,20.455,34,25C34,25.553,33.552,26,33,26z"/><rect width="2.4" height="2.747" x="16.771" y="31" fill="#8bc34a"/><path fill="#8bc34a" d="M17.971,33.436c-0.624,0.039-1.161-0.435-1.2-1.059c-0.003-0.047-0.003-0.094,0-0.141	c0-8.04,5.52-9.48,5.76-9.6c0.63-0.166,1.274,0.21,1.44,0.84c0.166,0.63-0.21,1.274-0.84,1.44l0,0c-0.12,0-3.96,1.2-3.96,7.2	c0,0-0.367,1.227-1.007,1.311C18.1,33.436,18.036,33.439,17.971,33.436z"/><path fill="#8bc34a" d="M21.058,20.184c2.109-1.549,6.047-0.78,6.975-0.549c-1.246,1.022-0.585,5.543-2.955,6.761	c-1.671,0.821-3.193,0.309-3.643-2.085C19.527,23.514,19.564,21.297,21.058,20.184z"/><path fill="#689f38" d="M25.077,26.396c2.308-1.195,1.732-5.676,2.955-6.761c-1.164,0.281-3.07,1.615-6.621,4.613	C21.884,26.706,23.407,27.218,25.077,26.396L25.077,26.396z"/><path fill="#8bc34a" d="M17.767,32.229c-0.552,0-1-0.447-1-1c0-6.368-2.922-8.461-3.047-8.547	c-0.451-0.313-0.571-0.932-0.265-1.386c0.307-0.455,0.918-0.579,1.375-0.278c0.161,0.106,3.936,2.687,3.936,10.211	C18.767,31.782,18.319,32.229,17.767,32.229z"/><path fill="#8bc34a" d="M16.696,19.577c-2.01-1.845-6.41-1.624-7.423-1.598c1.144,1.188-0.003,5.144,2.289,6.684	c1.608,1.107,3.32,0.847,4.107-1.317c1.304-0.179,2.132-1.296,1.85-2.494C17.405,20.364,17.115,19.915,16.696,19.577z"/><path fill="#689f38" d="M11.563,24.662c-2.292-1.54-1.145-5.495-2.289-6.684c1.175,0.471,3.138,1.854,6.412,5.316	C14.883,25.509,13.187,25.718,11.563,24.662z"/><path fill="#8bc34a" d="M9,37c-0.552,0-1-0.447-1-1c0-3.59-1.182-5.425-1.193-5.443c-0.302-0.459-0.18-1.078,0.276-1.384	c0.458-0.306,1.072-0.188,1.381,0.264C8.526,29.529,10,31.74,10,36C10,36.553,9.552,37,9,37z"/><path fill="#689f38" d="M36.43,14.189c3.167,2.467,4.745,1.672,6.173-0.792c2.052-3.495-1.92-8.058-1.168-10.383	c-1.528,0.514-7.725,2.567-9.199,6.326C31.137,11.978,33.22,14.807,36.43,14.189z"/><path fill="#8bc34a" d="M36.431,14.191c0.233,0.457,1.701,1.359,1.701,1.359c1.027,0.458,1.511,0.437,1.905,0.38	c1.287-0.099,2.353-0.826,3.121-2.153c1.713-2.923-1.17-6.858-1.726-9.431V4.338c-0.057-0.286-0.09-0.554-0.081-0.805	c0.007-0.186,0.029-0.356,0.085-0.516C40.131,4.35,36.431,14.191,36.431,14.191z"/><rect width="42" height="11" x="3" y="33" fill="#795548"/><circle cx="6.25" cy="36.25" r="1.25" fill="#bcaaa4"/><circle cx="41.75" cy="36.25" r="1.25" fill="#bcaaa4"/><circle cx="29.917" cy="36.25" r="1.25" fill="#bcaaa4"/><circle cx="18.083" cy="36.25" r="1.25" fill="#bcaaa4"/><circle cx="12.167" cy="40.75" r="1.25" fill="#bcaaa4"/><circle cx="35.833" cy="40.75" r="1.25" fill="#bcaaa4"/><circle cx="24" cy="40.75" r="1.25" fill="#bcaaa4"/><path fill="#8bc34a" d="M3.84,30.304c-1.907-1.849,0.151-5.162-0.687-6.302c1.83,0.133,4.986,0.294,6.408,2.491	c0.734,1.135,0.477,2.386-0.244,2.866c-0.519,0.346-1.165,0.392-1.742,0.191c0.001,0.584-0.266,1.146-0.785,1.492	C6.042,31.541,4.795,31.23,3.84,30.304z"/><path fill="#689f38" d="M7.568,29.551c0.008,0.59-0.263,1.149-0.778,1.492c-0.744,0.495-1.991,0.191-2.946-0.741	C1.93,28.454,3.997,25.143,3.156,24C3.897,25.007,6.49,26.536,7.568,29.551L7.568,29.551z"/><path fill="#8bc34a" d="M33,24c-0.552,0-1-0.447-1-1c0-4.241-2.477-6.783-4.555-8.168c-0.459-0.307-0.583-0.927-0.277-1.387	s0.926-0.584,1.387-0.277C32.117,15.543,34,18.942,34,23C34,23.553,33.552,24,33,24z"/><path fill="#8bc34a" d="M29.154,10.543C27.216,8.785,22.976,8.996,22,9.02c1.102,1.133-0.003,4.902,2.206,6.369	c1.55,1.055,3.2,0.807,3.958-1.255c1.256-0.171,2.054-1.235,1.783-2.377C29.836,11.293,29.557,10.865,29.154,10.543z"/><path fill="#689f38" d="M24.206,15.389C21.997,13.922,23.102,10.152,22,9.02c1.132,0.449,3.024,1.767,6.179,5.066	C27.406,16.196,25.771,16.395,24.206,15.389z"/><path fill="#8bc34a" d="M34,31h-2c0-2.514,3.289-5.763,5.553-6.895l0.895,1.789C36.587,26.824,34,29.57,34,31z"/><path fill="#8bc34a" d="M37.564,20.688c2.339-1.719,6.707-0.865,7.737-0.609c-1.382,1.134-0.649,6.148-3.278,7.499	c-1.853,0.911-3.542,0.343-4.041-2.313C35.866,24.382,35.907,21.922,37.564,20.688z"/><path fill="#689f38" d="M42.023,27.578c2.56-1.326,1.922-6.296,3.278-7.499c-1.291,0.312-3.405,1.791-7.344,5.117	C38.481,27.922,40.17,28.49,42.023,27.578L42.023,27.578z"/></svg>