<svg xmlns="http://www.w3.org/2000/svg" viewBox="0 0 40 36.03"><g data-name="Слой 2"><rect width="2" height="5" x="19" y="15" fill="#8bc34a"/><path fill="#8bc34a" d="M20,17.03a.943.943,0,0,1-1-1,9.65,9.65,0,0,0-5.4-8.1.88.88,0,0,1-.4-1.3.883.883,0,0,1,1.3-.4A11.221,11.221,0,0,1,21,16C20.9,16.5,20.6,17.03,20,17.03Z"/><path fill="#8bc34a" d="M16.6.83c-4.1-2.2-11,.6-12.6,1.2,2.4,1.5,2.5,9.2,6.9,10.7,3.1,1.1,5.7-.3,5.9-4.6A4.058,4.058,0,0,0,16.6.83ZM20,17.03a.943.943,0,0,1-1-1c0-6.7,4.6-7.9,4.8-8a.981.981,0,1,1,.5,1.9c-.1,0-3.3,1-3.3,6A.974.974,0,0,1,20,17.03Z"/><path fill="#8bc34a" d="M24.8,2.229c3.8-1.1,9,2,10.2,2.8-2.3.8-3.7,7.5-7.7,8-2.8.3-4.7-1.2-4.1-4.8C20.9,6.131,22.1,3.03,24.8,2.229Z"/><path fill="#689f38" d="M10.9,12.729c-4.4-1.5-4.5-9.2-6.9-10.7,2.1.2,5.9,1.6,12.8,6C16.6,12.428,14,13.729,10.9,12.729Zm16.4.3c3.9-.5,5.4-7.1,7.7-8-1.8-.2-5.2.7-11.8,3.1C22.6,11.83,24.5,13.33,27.3,13.03Z"/><rect width="40" height="17.03" y="19" fill="#795548"/><path fill="#bcaaa4" d="M3,32a1,1,0,1,0,1-1A1,1,0,0,0,3,32Zm0-9a1,1,0,1,0,1-1A1,1,0,0,0,3,23Zm32,9a1,1,0,1,0,1-1A1,1,0,0,0,35,32Zm0-9a1,1,0,1,0,1-1A1,1,0,0,0,35,23ZM13,32a1,1,0,1,0,1-1A1,1,0,0,0,13,32Zm0-9a1,1,0,1,0,1-1A1,1,0,0,0,13,23Zm6,5a1,1,0,1,0,1-1A1,1,0,0,0,19,28Zm11,0a1,1,0,1,0,1-1A1,1,0,0,0,30,28ZM8,28a1,1,0,1,0,1-1A1,1,0,0,0,8,28Zm17,4a1,1,0,1,0,1-1A1,1,0,0,0,25,32Zm0-9a1,1,0,1,0,1-1A1,1,0,0,0,25,23Z"/></g></svg>